<svg width="24" height="24" viewBox="0 0 24 24" fill="none" xmlns="http://www.w3.org/2000/svg">
<path d="M6.11907 16.7958C5.51767 16.884 4.52767 17.048 3.86907 16.3008C3.21048 15.5536 2.64095 13.7494 2.39063 12.1369C2.02126 9.76036 2.38782 7.75739 3.42188 6.49739C4.03126 5.75536 4.83095 5.32551 5.7347 5.25708C6.5086 5.19754 7.66501 5.50036 8.78157 7.28161C9.48095 8.3977 10.013 9.88036 10.2413 11.349C10.5169 13.1218 10.7855 15.0136 9.84563 15.6919C9.31548 16.0749 8.93485 16.2075 8.03532 16.4218C7.29563 16.5975 6.72095 16.7072 6.11907 16.7958ZM5.04938 18.3207L10.1536 17.2679C10.5849 17.1788 10.9308 17.416 11.0911 18.1266C11.617 20.4591 10.8633 23.25 8.50267 23.25C6.2672 23.25 4.77751 20.7019 4.53423 19.3322C4.42313 18.7111 4.58157 18.4168 5.04938 18.3207ZM15.9652 11.9222C15.0656 11.709 14.685 11.5754 14.1549 11.1924C13.215 10.5141 13.4836 8.62223 13.7592 6.84942C13.9875 5.38083 14.5195 3.89629 15.2189 2.78207C16.3345 1.00082 17.4909 0.698012 18.2658 0.757544C19.1686 0.82645 19.9688 1.25536 20.5781 1.99739C21.6131 3.25739 21.9797 5.26036 21.6094 7.63692C21.3586 9.24942 20.7909 11.0475 20.1286 11.8008C19.4663 12.5541 18.4819 12.384 17.8786 12.2958C17.2753 12.2077 16.7044 12.0975 15.9652 11.9222ZM18.9506 13.8207L13.8464 12.7679C13.4152 12.6788 13.0692 12.916 12.9089 13.6266C12.3834 15.9591 13.1372 18.75 15.4978 18.75C17.7333 18.75 19.223 16.2019 19.4663 14.8322C19.5769 14.2111 19.4184 13.9168 18.9506 13.8207Z" fill="black"/>
</svg>
