<svg width="133" height="133" viewBox="0 0 133 133" fill="none" xmlns="http://www.w3.org/2000/svg">
<g filter="url(#filter0_dddf_176_1074)">
<mask id="path-1-outside-1_176_1074" maskUnits="userSpaceOnUse" x="43.5858" y="43.5857" width="45.2548" height="45.2548" fill="black">
<rect fill="white" x="43.5858" y="43.5857" width="45.2548" height="45.2548"/>
<path d="M76.8198 55.6065C78.9176 57.7043 80.3462 60.3771 80.925 63.2868C81.5038 66.1965 81.2067 69.2125 80.0714 71.9534C78.9361 74.6943 77.0135 77.037 74.5468 78.6852C72.08 80.3334 69.1799 81.2131 66.2132 81.2131C63.2465 81.2131 60.3464 80.3334 57.8797 78.6852C55.4129 77.037 53.4903 74.6943 52.355 71.9534C51.2197 69.2125 50.9226 66.1965 51.5014 63.2868C52.0802 60.3771 53.5088 57.7043 55.6066 55.6065L58.4527 58.4526C56.9178 59.9875 55.8725 61.9431 55.449 64.072C55.0256 66.201 55.2429 68.4077 56.0736 70.4131C56.9043 72.4185 58.311 74.1326 60.1158 75.3385C61.9206 76.5445 64.0425 77.1882 66.2132 77.1882C68.3839 77.1882 70.5058 76.5445 72.3106 75.3385C74.1154 74.1326 75.5221 72.4185 76.3528 70.4131C77.1835 68.4077 77.4008 66.201 76.9774 64.072C76.5539 61.9431 75.5086 59.9875 73.9737 58.4526L76.8198 55.6065Z"/>
</mask>
<path d="M76.8198 55.6065C78.9176 57.7043 80.3462 60.3771 80.925 63.2868C81.5038 66.1965 81.2067 69.2125 80.0714 71.9534C78.9361 74.6943 77.0135 77.037 74.5468 78.6852C72.08 80.3334 69.1799 81.2131 66.2132 81.2131C63.2465 81.2131 60.3464 80.3334 57.8797 78.6852C55.4129 77.037 53.4903 74.6943 52.355 71.9534C51.2197 69.2125 50.9226 66.1965 51.5014 63.2868C52.0802 60.3771 53.5088 57.7043 55.6066 55.6065L58.4527 58.4526C56.9178 59.9875 55.8725 61.9431 55.449 64.072C55.0256 66.201 55.2429 68.4077 56.0736 70.4131C56.9043 72.4185 58.311 74.1326 60.1158 75.3385C61.9206 76.5445 64.0425 77.1882 66.2132 77.1882C68.3839 77.1882 70.5058 76.5445 72.3106 75.3385C74.1154 74.1326 75.5221 72.4185 76.3528 70.4131C77.1835 68.4077 77.4008 66.201 76.9774 64.072C76.5539 61.9431 75.5086 59.9875 73.9737 58.4526L76.8198 55.6065Z" fill="white"/>
<path d="M76.8198 55.6065C78.9176 57.7043 80.3462 60.3771 80.925 63.2868C81.5038 66.1965 81.2067 69.2125 80.0714 71.9534C78.9361 74.6943 77.0135 77.037 74.5468 78.6852C72.08 80.3334 69.1799 81.2131 66.2132 81.2131C63.2465 81.2131 60.3464 80.3334 57.8797 78.6852C55.4129 77.037 53.4903 74.6943 52.355 71.9534C51.2197 69.2125 50.9226 66.1965 51.5014 63.2868C52.0802 60.3771 53.5088 57.7043 55.6066 55.6065L58.4527 58.4526C56.9178 59.9875 55.8725 61.9431 55.449 64.072C55.0256 66.201 55.2429 68.4077 56.0736 70.4131C56.9043 72.4185 58.311 74.1326 60.1158 75.3385C61.9206 76.5445 64.0425 77.1882 66.2132 77.1882C68.3839 77.1882 70.5058 76.5445 72.3106 75.3385C74.1154 74.1326 75.5221 72.4185 76.3528 70.4131C77.1835 68.4077 77.4008 66.201 76.9774 64.072C76.5539 61.9431 75.5086 59.9875 73.9737 58.4526L76.8198 55.6065Z" stroke="#23F0FD" stroke-width="2" mask="url(#path-1-outside-1_176_1074)"/>
</g>
<g filter="url(#filter1_dddf_176_1074)">
<rect x="64.2129" y="51.2131" width="4" height="17" fill="white"/>
<rect x="63.7129" y="50.7131" width="5" height="18" stroke="#23F0FD"/>
</g>
<defs>
<filter id="filter0_dddf_176_1074" x="0.213379" y="4.19238" width="132" height="128.021" filterUnits="userSpaceOnUse" color-interpolation-filters="sRGB">
<feFlood flood-opacity="0" result="BackgroundImageFix"/>
<feColorMatrix in="SourceAlpha" type="matrix" values="0 0 0 0 0 0 0 0 0 0 0 0 0 0 0 0 0 0 127 0" result="hardAlpha"/>
<feOffset/>
<feGaussianBlur stdDeviation="5"/>
<feComposite in2="hardAlpha" operator="out"/>
<feColorMatrix type="matrix" values="0 0 0 0 0.136354 0 0 0 0 0.940348 0 0 0 0 0.991667 0 0 0 1 0"/>
<feBlend mode="normal" in2="BackgroundImageFix" result="effect1_dropShadow_176_1074"/>
<feColorMatrix in="SourceAlpha" type="matrix" values="0 0 0 0 0 0 0 0 0 0 0 0 0 0 0 0 0 0 127 0" result="hardAlpha"/>
<feOffset/>
<feGaussianBlur stdDeviation="12.5"/>
<feComposite in2="hardAlpha" operator="out"/>
<feColorMatrix type="matrix" values="0 0 0 0 0.136354 0 0 0 0 0.940348 0 0 0 0 0.991667 0 0 0 1 0"/>
<feBlend mode="normal" in2="effect1_dropShadow_176_1074" result="effect2_dropShadow_176_1074"/>
<feColorMatrix in="SourceAlpha" type="matrix" values="0 0 0 0 0 0 0 0 0 0 0 0 0 0 0 0 0 0 127 0" result="hardAlpha"/>
<feOffset/>
<feGaussianBlur stdDeviation="25"/>
<feComposite in2="hardAlpha" operator="out"/>
<feColorMatrix type="matrix" values="0 0 0 0 0.136354 0 0 0 0 0.940348 0 0 0 0 0.991667 0 0 0 1 0"/>
<feBlend mode="normal" in2="effect2_dropShadow_176_1074" result="effect3_dropShadow_176_1074"/>
<feBlend mode="normal" in="SourceGraphic" in2="effect3_dropShadow_176_1074" result="shape"/>
<feGaussianBlur stdDeviation="0.5" result="effect4_foregroundBlur_176_1074"/>
</filter>
<filter id="filter1_dddf_176_1074" x="13.2129" y="0.213135" width="106" height="119" filterUnits="userSpaceOnUse" color-interpolation-filters="sRGB">
<feFlood flood-opacity="0" result="BackgroundImageFix"/>
<feColorMatrix in="SourceAlpha" type="matrix" values="0 0 0 0 0 0 0 0 0 0 0 0 0 0 0 0 0 0 127 0" result="hardAlpha"/>
<feOffset/>
<feGaussianBlur stdDeviation="5"/>
<feComposite in2="hardAlpha" operator="out"/>
<feColorMatrix type="matrix" values="0 0 0 0 0.136354 0 0 0 0 0.940348 0 0 0 0 0.991667 0 0 0 1 0"/>
<feBlend mode="normal" in2="BackgroundImageFix" result="effect1_dropShadow_176_1074"/>
<feColorMatrix in="SourceAlpha" type="matrix" values="0 0 0 0 0 0 0 0 0 0 0 0 0 0 0 0 0 0 127 0" result="hardAlpha"/>
<feOffset/>
<feGaussianBlur stdDeviation="12.5"/>
<feComposite in2="hardAlpha" operator="out"/>
<feColorMatrix type="matrix" values="0 0 0 0 0.136354 0 0 0 0 0.940348 0 0 0 0 0.991667 0 0 0 1 0"/>
<feBlend mode="normal" in2="effect1_dropShadow_176_1074" result="effect2_dropShadow_176_1074"/>
<feColorMatrix in="SourceAlpha" type="matrix" values="0 0 0 0 0 0 0 0 0 0 0 0 0 0 0 0 0 0 127 0" result="hardAlpha"/>
<feOffset/>
<feGaussianBlur stdDeviation="25"/>
<feComposite in2="hardAlpha" operator="out"/>
<feColorMatrix type="matrix" values="0 0 0 0 0.136354 0 0 0 0 0.940348 0 0 0 0 0.991667 0 0 0 1 0"/>
<feBlend mode="normal" in2="effect2_dropShadow_176_1074" result="effect3_dropShadow_176_1074"/>
<feBlend mode="normal" in="SourceGraphic" in2="effect3_dropShadow_176_1074" result="shape"/>
<feGaussianBlur stdDeviation="0.5" result="effect4_foregroundBlur_176_1074"/>
</filter>
</defs>
</svg>
