<svg width="43" height="43" viewBox="0 0 43 43" fill="none" xmlns="http://www.w3.org/2000/svg">
<path opacity="0.8" d="M31.8198 10.6065C33.9176 12.7043 35.3462 15.3771 35.925 18.2868C36.5038 21.1965 36.2067 24.2125 35.0714 26.9534C33.9361 29.6943 32.0135 32.037 29.5468 33.6852C27.08 35.3334 24.1799 36.2131 21.2132 36.2131C18.2465 36.2131 15.3464 35.3334 12.8797 33.6852C10.4129 32.037 8.49032 29.6943 7.35501 26.9534C6.2197 24.2125 5.92265 21.1965 6.50142 18.2868C7.0802 15.3771 8.50881 12.7043 10.6066 10.6065L13.4527 13.4526C11.9178 14.9875 10.8725 16.9431 10.449 19.072C10.0256 21.201 10.2429 23.4077 11.0736 25.4131C11.9043 27.4185 13.311 29.1326 15.1158 30.3385C16.9206 31.5445 19.0425 32.1882 21.2132 32.1882C23.3839 32.1882 25.5058 31.5445 27.3106 30.3385C29.1154 29.1326 30.5221 27.4185 31.3528 25.4131C32.1835 23.4077 32.4008 21.201 31.9774 19.072C31.5539 16.9431 30.5086 14.9875 28.9737 13.4526L31.8198 10.6065Z" fill="white"/>
<rect opacity="0.8" x="19.2129" y="6.21313" width="4" height="17" fill="white"/>
</svg>
